<svg width="13" height="10" viewBox="0 0 13 10" fill="none" xmlns="http://www.w3.org/2000/svg">
<path d="M5.83333 9.33333H3.20833C2.32361 9.33333 1.56771 9.02708 0.940625 8.41458C0.313542 7.80208 0 7.05347 0 6.16875C0 5.41042 0.228472 4.73472 0.685417 4.14167C1.14236 3.54861 1.74028 3.16944 2.47917 3.00417C2.72222 2.10972 3.20833 1.38542 3.9375 0.83125C4.66667 0.277083 5.49306 0 6.41667 0C7.55417 0 8.5191 0.396181 9.31146 1.18854C10.1038 1.9809 10.5 2.94583 10.5 4.08333C11.1708 4.16111 11.7274 4.45035 12.1698 4.95104C12.6122 5.45174 12.8333 6.0375 12.8333 6.70833C12.8333 7.4375 12.5781 8.05729 12.0677 8.56771C11.5573 9.07812 10.9375 9.33333 10.2083 9.33333H7V5.1625L7.93333 6.06667L8.75 5.25L6.41667 2.91667L4.08333 5.25L4.9 6.06667L5.83333 5.1625V9.33333Z" fill="#C0C1FF"/>
</svg>
