<svg width="12" height="12" viewBox="0 0 12 12" fill="none" xmlns="http://www.w3.org/2000/svg">
<path d="M0 11.6667V1.16667C0 0.845833 0.114236 0.571181 0.342708 0.342708C0.571181 0.114236 0.845833 0 1.16667 0H10.5C10.8208 0 11.0955 0.114236 11.324 0.342708C11.5524 0.571181 11.6667 0.845833 11.6667 1.16667V8.16667C11.6667 8.4875 11.5524 8.76215 11.324 8.99063C11.0955 9.2191 10.8208 9.33333 10.5 9.33333H2.33333L0 11.6667ZM2.33333 7H7V5.83333H2.33333V7ZM2.33333 5.25H9.33333V4.08333H2.33333V5.25ZM2.33333 3.5H9.33333V2.33333H2.33333V3.5Z" fill="#60A5FA"/>
</svg>
